<svg width="18" height="18" viewBox="0 0 18 18" fill="none" xmlns="http://www.w3.org/2000/svg">
<path d="M9.00391 4.26465C6.51953 4.26465 4.51562 6.26855 4.51562 8.75293C4.51562 11.2373 6.51953 13.2412 9.00391 13.2412C11.4883 13.2412 13.4922 11.2373 13.4922 8.75293C13.4922 6.26855 11.4883 4.26465 9.00391 4.26465ZM9.00391 11.6709C7.39844 11.6709 6.08594 10.3623 6.08594 8.75293C6.08594 7.14355 7.39453 5.83496 9.00391 5.83496C10.6133 5.83496 11.9219 7.14355 11.9219 8.75293C11.9219 10.3623 10.6094 11.6709 9.00391 11.6709ZM14.7227 4.08105C14.7227 4.66309 14.2539 5.12793 13.6758 5.12793C13.0938 5.12793 12.6289 4.65918 12.6289 4.08105C12.6289 3.50293 13.0977 3.03418 13.6758 3.03418C14.2539 3.03418 14.7227 3.50293 14.7227 4.08105ZM17.6953 5.14355C17.6289 3.74121 17.3086 2.49902 16.2812 1.47559C15.2578 0.452148 14.0156 0.131836 12.6133 0.0615234C11.168 -0.0205078 6.83594 -0.0205078 5.39062 0.0615234C3.99219 0.12793 2.75 0.448242 1.72266 1.47168C0.695313 2.49512 0.378906 3.7373 0.308594 5.13965C0.226562 6.58496 0.226562 10.917 0.308594 12.3623C0.375 13.7646 0.695313 15.0068 1.72266 16.0303C2.75 17.0537 3.98828 17.374 5.39062 17.4443C6.83594 17.5264 11.168 17.5264 12.6133 17.4443C14.0156 17.3779 15.2578 17.0576 16.2812 16.0303C17.3047 15.0068 17.625 13.7646 17.6953 12.3623C17.7773 10.917 17.7773 6.58887 17.6953 5.14355ZM15.8281 13.9131C15.5234 14.6787 14.9336 15.2686 14.1641 15.5771C13.0117 16.0342 10.2773 15.9287 9.00391 15.9287C7.73047 15.9287 4.99219 16.0303 3.84375 15.5771C3.07812 15.2725 2.48828 14.6826 2.17969 13.9131C1.72266 12.7607 1.82813 10.0264 1.82813 8.75293C1.82813 7.47949 1.72656 4.74121 2.17969 3.59277C2.48438 2.82715 3.07422 2.2373 3.84375 1.92871C4.99609 1.47168 7.73047 1.57715 9.00391 1.57715C10.2773 1.57715 13.0156 1.47559 14.1641 1.92871C14.9297 2.2334 15.5195 2.82324 15.8281 3.59277C16.2852 4.74512 16.1797 7.47949 16.1797 8.75293C16.1797 10.0264 16.2852 12.7646 15.8281 13.9131Z" fill="#54AB6A"/>
</svg>
