<svg width="18" height="18" viewBox="0 0 18 18" fill="none" xmlns="http://www.w3.org/2000/svg">
<path d="M4.16719 17.9996H0.539062V6.31602H4.16719V17.9996ZM2.35117 4.72227C1.19102 4.72227 0.25 3.76133 0.25 2.60117C0.25 2.04391 0.471373 1.50947 0.865419 1.11542C1.25947 0.721373 1.79391 0.5 2.35117 0.5C2.90844 0.5 3.44288 0.721373 3.83692 1.11542C4.23097 1.50947 4.45234 2.04391 4.45234 2.60117C4.45234 3.76133 3.51094 4.72227 2.35117 4.72227ZM17.7461 17.9996H14.1258V12.3121C14.1258 10.9566 14.0984 9.21836 12.2395 9.21836C10.3531 9.21836 10.0641 10.691 10.0641 12.2145V17.9996H6.43984V6.31602H9.91953V7.90977H9.97031C10.4547 6.9918 11.6379 6.02305 13.4031 6.02305C17.075 6.02305 17.75 8.44102 17.75 11.5816V17.9996H17.7461Z" fill="#54AB6A"/>
</svg>
