<svg width="24" height="25" viewBox="0 0 24 25" fill="none" xmlns="http://www.w3.org/2000/svg">
<path d="M21 8.14026H3C2.59 8.14026 2.25 7.80026 2.25 7.39026C2.25 6.98026 2.59 6.64026 3 6.64026H21C21.41 6.64026 21.75 6.98026 21.75 7.39026C21.75 7.80026 21.41 8.14026 21 8.14026Z" fill="#292D32"/>
<path d="M21 13.1403H3C2.59 13.1403 2.25 12.8003 2.25 12.3903C2.25 11.9803 2.59 11.6403 3 11.6403H21C21.41 11.6403 21.75 11.9803 21.75 12.3903C21.75 12.8003 21.41 13.1403 21 13.1403Z" fill="#292D32"/>
<path d="M21 18.1403H3C2.59 18.1403 2.25 17.8003 2.25 17.3903C2.25 16.9803 2.59 16.6403 3 16.6403H21C21.41 16.6403 21.75 16.9803 21.75 17.3903C21.75 17.8003 21.41 18.1403 21 18.1403Z" fill="#292D32"/>
</svg>
